<svg xmlns="http://www.w3.org/2000/svg" viewBox="0 0 1920 900" preserveAspectRatio="xMidYMid slice">
  <defs>
    <linearGradient id="bg" x1="0" y1="0" x2="1920" y2="900" gradientUnits="userSpaceOnUse">
      <stop offset="0%" stop-color="#F8F7FF"/>
      <stop offset="55%" stop-color="#F3F0FF"/>
      <stop offset="100%" stop-color="#EEF4FF"/>
    </linearGradient>
    <radialGradient id="pool-r" cx="68%" cy="45%" r="40%" gradientUnits="objectBoundingBox">
      <stop offset="0%" stop-color="#C4B5FD" stop-opacity="0.55"/>
      <stop offset="50%" stop-color="#DDD6FE" stop-opacity="0.25"/>
      <stop offset="100%" stop-color="#EDE9FE" stop-opacity="0"/>
    </radialGradient>
    <radialGradient id="pool-bl" cx="12%" cy="92%" r="35%" gradientUnits="objectBoundingBox">
      <stop offset="0%" stop-color="#93C5FD" stop-opacity="0.45"/>
      <stop offset="100%" stop-color="#DBEAFE" stop-opacity="0"/>
    </radialGradient>
    <radialGradient id="pool-tl" cx="0%" cy="0%" r="38%" gradientUnits="objectBoundingBox">
      <stop offset="0%" stop-color="#E9D5FF" stop-opacity="0.40"/>
      <stop offset="100%" stop-color="#F5F3FF" stop-opacity="0"/>
    </radialGradient>
    <radialGradient id="pool-mid" cx="50%" cy="110%" r="45%" gradientUnits="objectBoundingBox">
      <stop offset="0%" stop-color="#BAE6FD" stop-opacity="0.30"/>
      <stop offset="100%" stop-color="#EFF5FF" stop-opacity="0"/>
    </radialGradient>
    <filter id="fblur" x="-60%" y="-60%" width="220%" height="220%">
      <feGaussianBlur stdDeviation="72"/>
    </filter>
    <filter id="fblur2" x="-40%" y="-40%" width="180%" height="180%">
      <feGaussianBlur stdDeviation="38"/>
    </filter>
    <filter id="fblur3" x="-30%" y="-30%" width="160%" height="160%">
      <feGaussianBlur stdDeviation="18"/>
    </filter>
    <pattern id="dots" width="30" height="30" patternUnits="userSpaceOnUse">
      <circle cx="1.5" cy="1.5" r="1.4" fill="#7C3AED" opacity="0.10"/>
    </pattern>
    <linearGradient id="mesh-line-v" x1="0" y1="0" x2="0" y2="1">
      <stop offset="0%" stop-color="#A78BFA" stop-opacity="0"/>
      <stop offset="40%" stop-color="#A78BFA" stop-opacity="0.18"/>
      <stop offset="100%" stop-color="#A78BFA" stop-opacity="0"/>
    </linearGradient>
    <linearGradient id="mesh-line-h" x1="0" y1="0" x2="1" y2="0">
      <stop offset="0%" stop-color="#A78BFA" stop-opacity="0"/>
      <stop offset="40%" stop-color="#A78BFA" stop-opacity="0.14"/>
      <stop offset="100%" stop-color="#A78BFA" stop-opacity="0"/>
    </linearGradient>
    <linearGradient id="wave-fade" x1="0" y1="0" x2="1" y2="0">
      <stop offset="0%" stop-color="#A78BFA" stop-opacity="0"/>
      <stop offset="30%" stop-color="#A78BFA" stop-opacity="0.18"/>
      <stop offset="70%" stop-color="#818CF8" stop-opacity="0.18"/>
      <stop offset="100%" stop-color="#818CF8" stop-opacity="0"/>
    </linearGradient>
    <linearGradient id="arc-l" x1="0" y1="0" x2="1" y2="1">
      <stop offset="0%" stop-color="#C4B5FD" stop-opacity="0.45"/>
      <stop offset="100%" stop-color="#818CF8" stop-opacity="0"/>
    </linearGradient>
    <linearGradient id="arc-r" x1="1" y1="0" x2="0" y2="1">
      <stop offset="0%" stop-color="#7DD3FC" stop-opacity="0.35"/>
      <stop offset="100%" stop-color="#93C5FD" stop-opacity="0"/>
    </linearGradient>
    <clipPath id="canvas">
      <rect width="1920" height="900"/>
    </clipPath>
  </defs>

  <rect width="1920" height="900" fill="url(#bg)"/>
  <rect width="1920" height="900" fill="url(#pool-r)"/>
  <rect width="1920" height="900" fill="url(#pool-bl)"/>
  <rect width="1920" height="900" fill="url(#pool-tl)"/>
  <rect width="1920" height="900" fill="url(#pool-mid)"/>

  <ellipse cx="1520" cy="180" rx="500" ry="420" fill="#C4B5FD" opacity="0.18" filter="url(#fblur)"/>
  <ellipse cx="180"  cy="830" rx="380" ry="300" fill="#7DD3FC" opacity="0.20" filter="url(#fblur)"/>
  <ellipse cx="960"  cy="500" rx="340" ry="260" fill="#DDD6FE" opacity="0.14" filter="url(#fblur)"/>
  <ellipse cx="1300" cy="720" rx="260" ry="200" fill="#BAE6FD" opacity="0.18" filter="url(#fblur2)"/>
  <ellipse cx="420"  cy="200" rx="280" ry="200" fill="#EDE9FE" opacity="0.22" filter="url(#fblur2)"/>

  <rect width="1920" height="900" fill="url(#dots)" opacity="0.60"/>

  <g clip-path="url(#canvas)" opacity="0.45">
    <line x1="640"  y1="0" x2="640"  y2="900" stroke="url(#mesh-line-v)" stroke-width="1"/>
    <line x1="800"  y1="0" x2="800"  y2="900" stroke="url(#mesh-line-v)" stroke-width="1"/>
    <line x1="960"  y1="0" x2="960"  y2="900" stroke="url(#mesh-line-v)" stroke-width="1"/>
    <line x1="1120" y1="0" x2="1120" y2="900" stroke="url(#mesh-line-v)" stroke-width="1"/>
    <line x1="1280" y1="0" x2="1280" y2="900" stroke="url(#mesh-line-v)" stroke-width="1"/>
    <line x1="1440" y1="0" x2="1440" y2="900" stroke="url(#mesh-line-v)" stroke-width="1"/>
    <line x1="0" y1="300" x2="1920" y2="300" stroke="url(#mesh-line-h)" stroke-width="1"/>
    <line x1="0" y1="450" x2="1920" y2="450" stroke="url(#mesh-line-h)" stroke-width="1"/>
    <line x1="0" y1="600" x2="1920" y2="600" stroke="url(#mesh-line-h)" stroke-width="1"/>
  </g>

  <g clip-path="url(#canvas)">
    <circle cx="1340" cy="450" r="420" fill="none" stroke="#A78BFA" stroke-width="1.2" opacity="0.18"/>
    <circle cx="1340" cy="450" r="330" fill="none" stroke="#A78BFA" stroke-width="1"   opacity="0.20" stroke-dasharray="5 12"/>
    <circle cx="1340" cy="450" r="248" fill="none" stroke="#C4B5FD" stroke-width="1.5" opacity="0.28"/>
    <circle cx="1340" cy="450" r="168" fill="none" stroke="#DDD6FE" stroke-width="1.8" opacity="0.35"/>
    <circle cx="1340" cy="450" r="168" fill="#EDE9FE" opacity="0.30" filter="url(#fblur3)"/>

    <circle cx="1340" cy="140" r="5"  fill="#A78BFA" opacity="0.55"/>
    <circle cx="1340" cy="140" r="11" fill="none" stroke="#A78BFA" stroke-width="1.2" opacity="0.25"/>
    <circle cx="1638" cy="282" r="4"  fill="#818CF8" opacity="0.50"/>
    <circle cx="1638" cy="282" r="9"  fill="none" stroke="#818CF8" stroke-width="1" opacity="0.22"/>
    <circle cx="1042" cy="282" r="4"  fill="#C4B5FD" opacity="0.50"/>
    <circle cx="1042" cy="282" r="9"  fill="none" stroke="#C4B5FD" stroke-width="1" opacity="0.22"/>
    <circle cx="1638" cy="618" r="4"  fill="#7DD3FC" opacity="0.50"/>
    <circle cx="1042" cy="618" r="4"  fill="#A78BFA" opacity="0.45"/>
    <circle cx="1340" cy="760" r="5"  fill="#818CF8" opacity="0.40"/>

    <path d="M 980 120 A 400 400 0 0 1 1700 120" fill="none" stroke="url(#arc-l)" stroke-width="1.2" stroke-dasharray="3 10"/>
    <path d="M 960 780 A 420 420 0 0 0 1720 780" fill="none" stroke="url(#arc-r)" stroke-width="1"   stroke-dasharray="3 10"/>
    <path d="M 870 200 A 500 500 0 0 1 1810 200" fill="none" stroke="#818CF8"     stroke-width="0.8" opacity="0.12"/>
  </g>

  <g clip-path="url(#canvas)" opacity="0.42">
    <path d="M 0 560 Q 240 520 480 555 T 960 545 T 1440 558 T 1920 542" fill="none" stroke="url(#wave-fade)" stroke-width="1.5"/>
    <path d="M 0 590 Q 240 558 480 585 T 960 572 T 1440 588 T 1920 570" fill="none" stroke="url(#wave-fade)" stroke-width="1"/>
    <path d="M 0 340 Q 300 310 600 338 T 1200 328 T 1920 340"           fill="none" stroke="#C4B5FD"        stroke-width="0.8" opacity="0.22"/>
  </g>

  <g clip-path="url(#canvas)">
    <rect x="500" y="148" width="20" height="20" rx="4" fill="none" stroke="#A78BFA" stroke-width="1.6" opacity="0.38" transform="rotate(22 510 158)"/>
    <polygon points="1780,78 1798,112 1762,112" fill="none" stroke="#818CF8" stroke-width="1.4" opacity="0.28"/>
    <polygon points="200,380 210,400 190,400" fill="none" stroke="#C4B5FD" stroke-width="1.4" opacity="0.35"/>
    <rect x="1700" y="460" width="16" height="16" rx="3" fill="none" stroke="#7DD3FC" stroke-width="1.5" opacity="0.38" transform="rotate(-15 1708 468)"/>
    <rect x="90" y="560" width="14" height="14" rx="3" fill="none" stroke="#A78BFA" stroke-width="1.5" opacity="0.32" transform="rotate(30 97 567)"/>
    <polygon points="1820,400 1835,428 1805,428" fill="none" stroke="#C4B5FD" stroke-width="1.2" opacity="0.28"/>

    <line x1="660" y1="618" x2="660" y2="638" stroke="#A78BFA"  stroke-width="2" stroke-linecap="round" opacity="0.38"/>
    <line x1="650" y1="628" x2="670" y2="628" stroke="#A78BFA"  stroke-width="2" stroke-linecap="round" opacity="0.38"/>
    <line x1="1740" y1="700" x2="1740" y2="716" stroke="#7DD3FC" stroke-width="2" stroke-linecap="round" opacity="0.40"/>
    <line x1="1732" y1="708" x2="1748" y2="708" stroke="#7DD3FC" stroke-width="2" stroke-linecap="round" opacity="0.40"/>
    <line x1="340" y1="700" x2="340" y2="714" stroke="#C4B5FD"  stroke-width="2" stroke-linecap="round" opacity="0.35"/>
    <line x1="333" y1="707" x2="347" y2="707" stroke="#C4B5FD"  stroke-width="2" stroke-linecap="round" opacity="0.35"/>

    <circle cx="1840" cy="800" r="30" fill="none" stroke="#DDD6FE" stroke-width="1.5" opacity="0.38"/>
    <circle cx="1840" cy="800" r="16" fill="none" stroke="#C4B5FD" stroke-width="1.2" opacity="0.32"/>
    <circle cx="1840" cy="800" r="5"  fill="#C4B5FD" opacity="0.40"/>
    <circle cx="400"  cy="480" r="16" fill="none" stroke="#DDD6FE" stroke-width="1.2" opacity="0.45"/>
    <line x1="400" y1="465" x2="400" y2="495" stroke="#DDD6FE" stroke-width="0.9" opacity="0.40"/>
    <line x1="385" y1="480" x2="415" y2="480" stroke="#DDD6FE" stroke-width="0.9" opacity="0.40"/>
    <circle cx="1760" cy="170" r="220" fill="none" stroke="#C4B5FD" stroke-width="1"   opacity="0.10"/>
    <circle cx="1760" cy="170" r="300" fill="none" stroke="#DDD6FE" stroke-width="0.8" opacity="0.07"/>
    <circle cx="260"  cy="880" r="160" fill="none" stroke="#7DD3FC" stroke-width="1"   opacity="0.12"/>
  </g>

  <path d="M 0 828 Q 480 798 960 828 T 1920 812 L 1920 900 L 0 900 Z" fill="white" opacity="0.22"/>
  <path d="M 0 858 Q 480 835 960 858 T 1920 845 L 1920 900 L 0 900 Z" fill="white" opacity="0.38"/>
  <path d="M 0 882 Q 480 865 960 880 T 1920 870 L 1920 900 L 0 900 Z" fill="white" opacity="0.60"/>
  <rect x="0" y="892" width="1920" height="8" fill="white"/>
</svg>